<svg xmlns="http://www.w3.org/2000/svg" viewBox="0 0 180.46 179.55">
  <path fill="#ee774c" d="M180.46,54.15v85.58c0,5.2-3.95,9.4-8.84,9.4l-127.47-40.47-1.09-.35h-.01c-1.16-.75-2.09-2.65-2.52-5.11h0s-.27-97.81-.27-97.81v-.03c.02-2.96,3.49-5.36,7.76-5.36h0l123.59,37.67h.01l2.79.85s.01,0,.01,0c3.51,2.19,6.03,8.35,6.03,15.63Z"/>
  <path fill="#fff" d="M162.4,65.25v85.58c0,5.2-3.95,9.4-8.84,9.4L26.09,119.76l-1.09-.35h-.01c-1.16-.75-2.09-2.65-2.52-5.11h0s-.27-97.81-.27-97.81v-.03c.02-2.96,3.49-5.36,7.76-5.36h0l123.59,37.67h.01l2.79.85s.01,0,.01,0c3.51,2.19,6.03,8.35,6.03,15.63Z"/>
  <path fill="#ee774c" d="M157.72,67.8v85.58c0,5.2-3.95,9.4-8.84,9.4L21.41,122.31l-1.09-.35h-.01c-1.16-.75-2.09-2.65-2.52-5.11h0s-.27-97.81-.27-97.81v-.03c.02-2.96,3.49-5.36,7.76-5.36h0l123.59,37.67h.01l2.79.85s.01,0,.01,0c3.51,2.19,6.03,8.35,6.03,15.63Z"/>
  <path fill="#fff" stroke="#ee774c" stroke-width="2" stroke-miterlimit="10" d="M141.2,83.57v85.58c0,5.2-3.95,9.4-8.84,9.4L4.89,138.08l-1.09-.35h-.01c-1.16-.75-2.09-2.65-2.52-5.11h0s-.27-97.81-.27-97.81v-.03c.02-2.96,3.49-5.36,7.76-5.36h0l123.59,37.67h.01l2.79.85s.01,0,.01,0c3.51,2.19,6.03,8.35,6.03,15.63Z"/>
  <g>
    <line x1="50.98" y1="76.99" x2="28.17" y2="94.35" fill="none" stroke="#ee774c" stroke-linecap="round" stroke-width="9" stroke-miterlimit="10"/>
    <line x1="52.34" y1="126.01" x2="28.17" y2="94.35" fill="none" stroke="#ee774c" stroke-linecap="round" stroke-width="9" stroke-miterlimit="10"/>
    <line x1="110.03" y1="115.63" x2="87.22" y2="132.99" fill="none" stroke="#ee774c" stroke-linecap="round" stroke-width="9" stroke-miterlimit="10"/>
    <line x1="87.22" y1="85.67" x2="110.03" y2="115.63" fill="none" stroke="#ee774c" stroke-linecap="round" stroke-width="9" stroke-miterlimit="10"/>
  </g>
</svg>